<?xml version="1.0" standalone="no"?>
<!DOCTYPE svg PUBLIC "-//W3C//DTD SVG 20010904//EN"
 "http://www.w3.org/TR/2001/REC-SVG-20010904/DTD/svg10.dtd">
<svg version="1.0" xmlns="http://www.w3.org/2000/svg"
 width="369.000000pt" height="369.000000pt" viewBox="0 0 369.000000 369.000000"
 preserveAspectRatio="xMidYMid meet">
<metadata>
Created by potrace 1.14, written by Peter Selinger 2001-2017
</metadata>
<g transform="translate(0.000000,369.000000) scale(0.100000,-0.100000)"
fill="#000000" stroke="none">
<path d="M1610 3675 c-164 -23 -299 -58 -440 -114 -393 -157 -714 -433 -922
-793 -29 -51 -53 -95 -54 -98 0 -3 -15 -36 -33 -74 -66 -140 -126 -357 -149
-533 -16 -129 -7 -425 17 -550 82 -423 299 -799 617 -1068 100 -85 100 -84
194 -147 217 -142 482 -240 765 -282 107 -16 396 -14 505 3 839 131 1462 776
1569 1621 9 77 8 413 -2 440 -3 8 -8 33 -11 55 -3 22 -10 63 -16 90 -7 28 -14
61 -16 74 -23 120 -132 375 -223 521 -97 155 -273 359 -381 439 -19 14 -37 29
-40 32 -13 16 -149 109 -159 109 -6 0 -11 4 -11 8 0 13 -228 127 -330 165 -99
37 -260 80 -345 92 -27 4 -61 10 -75 12 -65 11 -373 10 -460 -2z"/>
</g>
</svg>
